<svg xmlns="http://www.w3.org/2000/svg" width="1080" height="760" viewBox="0 0 1080 760">
  <defs>
    <linearGradient id="bg" x1="0" y1="0" x2="0" y2="1"><stop offset="0" stop-color="#F8F7F2"/><stop offset="1" stop-color="#F0EEE7"/></linearGradient>
    <filter id="shadow" x="-40%" y="-40%" width="180%" height="180%"><feDropShadow dx="0" dy="18" stdDeviation="24" flood-color="#000" flood-opacity=".14"/></filter>
    <style>.ui{font-family:-apple-system,BlinkMacSystemFont,"Segoe UI",sans-serif;fill:#121311}.muted{fill:#85837C}.white{fill:#fff}.lime{fill:#C8FF22}</style>
  </defs>
  <rect width="1080" height="760" rx="36" fill="url(#bg)"/>
  <circle cx="990" cy="160" r="125" fill="#C8FF22" opacity=".07"/>
  <text x="62" y="72" class="ui" font-size="18" font-weight="800" letter-spacing="2">FOLDED / ACTION OPEN</text>
  <text x="62" y="100" class="ui muted" font-size="14">The selected workspace becomes the whole compact screen.</text>

  <g filter="url(#shadow)" transform="translate(352 28)">
    <rect width="376" height="704" rx="48" fill="#0A0A0A"/>
    <rect x="11" y="11" width="354" height="682" rx="40" fill="url(#bg)"/>
    <rect x="149" y="20" width="78" height="22" rx="11" fill="#0B0B0B"/>

    <g transform="translate(32 58)">
      <rect width="48" height="48" rx="16" fill="#151614"/>
      <path d="M31 16 21 24l10 8" stroke="#fff" stroke-width="2.4" fill="none" stroke-linecap="round" stroke-linejoin="round"/>
      <text x="62" y="18" class="ui" font-size="13" font-weight="900" letter-spacing="1">FOLDABLE MOTION LAB</text>
      <text x="62" y="37" class="ui muted" font-size="10">Focused workspace · state preserved</text>
      <rect x="245" y="8" width="76" height="28" rx="14" fill="#fff" stroke="#E2DFD6"/>
      <text x="264" y="25" class="ui" font-size="8" font-weight="900">FOLDED</text>
    </g>

    <g transform="translate(22 126)">
      <rect width="332" height="468" rx="30" fill="#FCFBF7" stroke="#EAE7DE"/>
      <rect x="10" y="10" width="312" height="66" rx="22" fill="#171816"/>
      <rect x="22" y="21" width="44" height="44" rx="15" fill="#C8FF22"/>
      <circle cx="44" cy="43" r="8" fill="#111"/>
      <text x="78" y="38" class="white" font-family="-apple-system,BlinkMacSystemFont,'Segoe UI',sans-serif" font-size="14" font-weight="900">Notes</text>
      <text x="78" y="54" fill="#FFFFFF77" font-family="-apple-system,BlinkMacSystemFont,'Segoe UI',sans-serif" font-size="8">Capture ideas and keep them with the fold state</text>
      <rect x="246" y="29" width="58" height="28" rx="14" fill="#FFFFFF12"/>
      <text x="261" y="46" class="white" font-family="-apple-system,BlinkMacSystemFont,'Segoe UI',sans-serif" font-size="7" font-weight="900">CREATE</text>

      <rect x="16" y="92" width="300" height="146" rx="23" fill="#F1EFE8"/>
      <text x="34" y="116" class="ui muted" font-size="8" font-weight="900" letter-spacing="1">3 NOTES · LIVE STATE</text>
      <text x="34" y="148" class="ui" font-size="21" font-weight="900">Capture it once.</text>
      <text x="34" y="173" class="ui" font-size="21" font-weight="900">Keep it through</text>
      <text x="34" y="198" class="ui" font-size="21" font-weight="900">every posture.</text>
      <rect x="222" y="194" width="76" height="34" rx="13" fill="#151614"/>
      <text x="242" y="215" class="white" font-family="-apple-system,BlinkMacSystemFont,'Segoe UI',sans-serif" font-size="8" font-weight="900">+ NEW</text>

      <g transform="translate(16 252)"><rect width="300" height="78" rx="20" fill="#F4F2EB"/><rect x="13" y="13" width="38" height="38" rx="12" fill="#171816"/><circle cx="32" cy="32" r="7" fill="#C8FF22"/><text x="64" y="30" class="ui" font-size="11" font-weight="900">Motion principle</text><text x="64" y="47" class="ui muted" font-size="8">Preserve intent while geometry changes.</text></g>
      <g transform="translate(16 342)"><rect width="300" height="78" rx="20" fill="#F4F2EB"/><rect x="13" y="13" width="38" height="38" rx="12" fill="#171816"/><circle cx="32" cy="32" r="7" fill="#C8FF22"/><text x="64" y="30" class="ui" font-size="11" font-weight="900">Same workspace</text><text x="64" y="47" class="ui muted" font-size="8">Unfold and it moves into the right pane.</text></g>
    </g>

    <g transform="translate(22 610)">
      <rect width="332" height="62" rx="22" fill="#171816"/>
      <rect x="10" y="10" width="40" height="40" rx="13" fill="#C8FF22"/>
      <text x="62" y="26" class="white" font-family="-apple-system,BlinkMacSystemFont,'Segoe UI',sans-serif" font-size="11" font-weight="900">Fold simulator</text>
      <text x="62" y="42" fill="#FFFFFF77" font-family="-apple-system,BlinkMacSystemFont,'Segoe UI',sans-serif" font-size="8">Manual posture control · 0%</text>
      <rect x="245" y="13" width="72" height="34" rx="14" fill="#FFFFFF12"/>
      <text x="265" y="34" class="white" font-family="-apple-system,BlinkMacSystemFont,'Segoe UI',sans-serif" font-size="8" font-weight="900">FOLDED</text>
    </g>
  </g>
</svg>
