<svg xmlns="http://www.w3.org/2000/svg" width="1080" height="760" viewBox="0 0 1080 760">
  <defs>
    <linearGradient id="bg" x1="0" y1="0" x2="0" y2="1">
      <stop offset="0" stop-color="#F8F7F2"/>
      <stop offset="1" stop-color="#F0EEE7"/>
    </linearGradient>
    <linearGradient id="hero" x1="0" y1="0" x2="1" y2="1">
      <stop offset="0" stop-color="#171816"/>
      <stop offset="1" stop-color="#0E0F0D"/>
    </linearGradient>
    <filter id="shadow" x="-40%" y="-40%" width="180%" height="180%">
      <feDropShadow dx="0" dy="18" stdDeviation="24" flood-color="#000" flood-opacity=".14"/>
    </filter>
    <style>
      .ui{font-family:-apple-system,BlinkMacSystemFont,"Segoe UI",sans-serif;fill:#121311}
      .muted{fill:#85837C}.white{fill:#fff}.lime{fill:#C8FF22}
    </style>
  </defs>
  <rect width="1080" height="760" rx="36" fill="url(#bg)"/>
  <circle cx="980" cy="170" r="120" fill="#C8FF22" opacity=".07"/>
  <circle cx="70" cy="650" r="130" fill="#7E57C2" opacity=".04"/>

  <text x="62" y="72" class="ui" font-size="18" font-weight="800" letter-spacing="2">FOLDED / COMPACT</text>
  <text x="62" y="100" class="ui muted" font-size="14">Actions take over the full screen while state remains live.</text>

  <g filter="url(#shadow)" transform="translate(352 28)">
    <rect x="0" y="0" width="376" height="704" rx="48" fill="#0A0A0A"/>
    <rect x="11" y="11" width="354" height="682" rx="40" fill="url(#bg)"/>
    <rect x="149" y="20" width="78" height="22" rx="11" fill="#0B0B0B"/>

    <g transform="translate(32 58)">
      <rect width="48" height="48" rx="16" fill="#151614"/>
      <path d="M14 24h20M24 14v20" stroke="#fff" stroke-width="2.4" stroke-linecap="round" opacity=".9"/>
      <circle cx="38" cy="10" r="4" fill="#C8FF22"/>
      <text x="62" y="18" class="ui" font-size="13" font-weight="900" letter-spacing="1">FOLDABLE MOTION LAB</text>
      <text x="62" y="37" class="ui muted" font-size="10">Compact home · tap any action</text>
      <rect x="245" y="8" width="76" height="28" rx="14" fill="#fff" stroke="#E2DFD6"/>
      <circle cx="258" cy="22" r="4" fill="#8B8A84"/>
      <text x="268" y="25" class="ui" font-size="8" font-weight="900">FOLDED</text>
    </g>

    <g transform="translate(22 126)">
      <rect width="332" height="210" rx="28" fill="url(#hero)"/>
      <circle cx="310" cy="16" r="88" fill="none" stroke="#fff" stroke-width="24" opacity=".07"/>
      <rect x="20" y="18" width="92" height="28" rx="14" fill="#fff" opacity=".10"/>
      <text x="32" y="36" class="white" font-family="-apple-system,BlinkMacSystemFont,'Segoe UI',sans-serif" font-size="8" font-weight="900" letter-spacing="1">POSTURE AWARE</text>
      <text x="20" y="132" class="white" font-family="-apple-system,BlinkMacSystemFont,'Segoe UI',sans-serif" font-size="31" font-weight="900">One flow.</text>
      <text x="20" y="164" class="white" font-family="-apple-system,BlinkMacSystemFont,'Segoe UI',sans-serif" font-size="31" font-weight="900">Two forms.</text>
      <text x="20" y="190" fill="#FFFFFF88" font-family="-apple-system,BlinkMacSystemFont,'Segoe UI',sans-serif" font-size="9">Open an action full screen, then unfold without losing context.</text>
      <g transform="translate(238 112) rotate(-8 40 40)">
        <rect width="80" height="80" rx="23" fill="#C8FF22"/>
        <rect x="27" y="18" width="26" height="44" rx="7" fill="none" stroke="#111" stroke-width="3"/>
      </g>
    </g>

    <g transform="translate(22 348)">
      <rect width="332" height="248" rx="27" fill="#fff"/>
      <text x="18" y="28" class="ui" font-size="12" font-weight="900">Quick actions</text>
      <text x="18" y="45" class="ui muted" font-size="9">Tap to open full screen</text>

      <g transform="translate(9 58)">
        <rect width="314" height="52" rx="18" fill="#151614"/>
        <rect x="8" y="6" width="40" height="40" rx="13" fill="#C8FF22"/>
        <text x="60" y="23" class="white" font-family="-apple-system,BlinkMacSystemFont,'Segoe UI',sans-serif" font-size="12" font-weight="900">Notes</text>
        <text x="60" y="39" fill="#FFFFFF88" font-family="-apple-system,BlinkMacSystemFont,'Segoe UI',sans-serif" font-size="8">Capture ideas and keep them with the fold state</text>
        <text x="261" y="25" class="lime" font-family="-apple-system,BlinkMacSystemFont,'Segoe UI',sans-serif" font-size="7" font-weight="900">CREATE</text>
      </g>
      <g transform="translate(9 114)">
        <rect width="314" height="52" rx="18" fill="#FAF9F5"/>
        <rect x="8" y="6" width="40" height="40" rx="13" fill="#F0EEE7"/>
        <text x="60" y="23" class="ui" font-size="12" font-weight="900">Tasks</text>
        <text x="60" y="39" class="ui muted" font-size="8">Add, check, and keep work visible across layouts</text>
      </g>
      <g transform="translate(9 170)">
        <rect width="314" height="52" rx="18" fill="#FAF9F5"/>
        <rect x="8" y="6" width="40" height="40" rx="13" fill="#F0EEE7"/>
        <text x="60" y="23" class="ui" font-size="12" font-weight="900">Reader</text>
        <text x="60" y="39" class="ui muted" font-size="8">Read with controls that stay alive while folding</text>
      </g>
    </g>

    <g transform="translate(22 610)">
      <rect width="332" height="62" rx="22" fill="#171816"/>
      <rect x="10" y="10" width="40" height="40" rx="13" fill="#C8FF22"/>
      <text x="62" y="26" class="white" font-family="-apple-system,BlinkMacSystemFont,'Segoe UI',sans-serif" font-size="11" font-weight="900">Fold simulator</text>
      <text x="62" y="42" fill="#FFFFFF77" font-family="-apple-system,BlinkMacSystemFont,'Segoe UI',sans-serif" font-size="8">Manual posture control · 0%</text>
      <rect x="245" y="13" width="72" height="34" rx="14" fill="#FFFFFF12"/>
      <text x="265" y="34" class="white" font-family="-apple-system,BlinkMacSystemFont,'Segoe UI',sans-serif" font-size="8" font-weight="900">FOLDED</text>
    </g>
  </g>
</svg>
